<svg xmlns="http://www.w3.org/2000/svg" width="70" height="70" viewBox="0 0 70 70"><g><g><path fill="#f5dfff" d="M35 0c19.33 0 35 15.67 35 35S54.33 70 35 70 0 54.33 0 35 15.67 0 35 0z"/></g><g><path fill="#af00ff" d="M50.437 37.317L36.827 52.41c-.338.374-.821.588-1.328.588-.506 0-.99-.214-1.327-.588L20.563 37.318a1.744 1.744 0 0 1-.163-2.125l4.256-6.473c.33-.5.886-.799 1.49-.799h18.72c.606 0 1.163.3 1.492.801l4.243 6.473c.434.661.366 1.534-.164 2.122zm-13.568-7.891l3.57 5.45 3.568-5.45zm-1.37.68l-3.54 5.404h7.08zm-8.49-.68l3.56 5.435 3.56-5.435zm-5 6.084h7.17l-3.578-5.465zM34.05 50.013l-4.053-12.998H22.33zm5.357-12.998h-7.816l3.908 12.532zm9.262 0h-7.667l-4.054 12.999zm.324-1.505l-3.58-5.461-3.574 5.461zm-29.92.752a.757.757 0 0 1-.763.753h-1.548a.757.757 0 0 1-.762-.753c0-.415.341-.752.762-.752h1.548c.421 0 .762.337.762.752zm35.927 0a.757.757 0 0 1-.762.753H52.69a.757.757 0 0 1-.761-.753c0-.415.34-.752.761-.752h1.55c.42 0 .76.337.76.752zM49.298 23.71l-2.53 2.499a.76.76 0 0 1-.539.22.761.761 0 0 1-.538-.22.745.745 0 0 1 0-1.063l2.53-2.5a.769.769 0 0 1 1.077 0 .746.746 0 0 1 0 1.064zm-23.956 2.486a.766.766 0 0 1-1.077 0l-2.53-2.5a.746.746 0 0 1 0-1.063.767.767 0 0 1 1.077 0l2.53 2.5a.746.746 0 0 1 0 1.063zm10.939-8.444v4.904a.758.758 0 0 1-.762.753.758.758 0 0 1-.761-.753v-4.904c0-.415.34-.752.761-.752.42 0 .762.337.762.752zm0 7.45c0 .197-.081.392-.224.532a.769.769 0 0 1-1.077 0 .752.752 0 0 1-.223-.533.753.753 0 0 1 .762-.752c.2 0 .397.08.538.22a.75.75 0 0 1 .224.532z"/></g></g></svg>