<svg xmlns="http://www.w3.org/2000/svg" width="70" height="70" viewBox="0 0 70 70"><g><g><path fill="#dfffe3" d="M35 0c19.33 0 35 15.67 35 35S54.33 70 35 70 0 54.33 0 35 15.67 0 35 0z"/></g><g><path fill="#0fff2d" d="M31.069 19.643a.648.648 0 0 1-1.1.456.649.649 0 0 1 0-.912.647.647 0 0 1 .91 0 .65.65 0 0 1 .19.456zm20.93 11.409v17.724A3.226 3.226 0 0 1 48.778 52H22.223A3.226 3.226 0 0 1 19 48.776V31.052c0-.216.106-.406.267-.522l3.213-2.326v-7.271c0-1.067.868-1.935 1.934-1.935h3.513a.645.645 0 0 1 0 1.29h-3.513a.646.646 0 0 0-.645.645v12.655l7.868 6.423 1.974-1.427a3.214 3.214 0 0 1 3.778 0l1.974 1.427 7.867-6.423V20.933a.645.645 0 0 0-.644-.645H32.954a.644.644 0 1 1 0-1.29h13.632c1.066 0 1.933.868 1.933 1.935v7.271l3.214 2.326a.642.642 0 0 1 .267.522zm-3.48 1.483l1.78-1.453-1.78-1.286zm-27.818-1.453l1.78 1.453v-2.74zm-.412 17.14l10.267-7.43L20.29 32.41zm30.208 1.436l-1.042-.753h-8.219a.645.645 0 0 1 0-1.289h6.438l-11.04-7.988a1.929 1.929 0 0 0-2.268 0l-13.863 10.03a1.934 1.934 0 0 0 1.72 1.052h26.554c.749 0 1.399-.428 1.72-1.052zm.214-17.248l-10.268 8.383 10.268 7.43zm-12.035-4.808l-3.618 3.618a.646.646 0 0 1-.912 0l-1.823-1.823a.645.645 0 0 1 .912-.912l1.367 1.368 3.163-3.163a.645.645 0 0 1 .911.912zm3.3 1.354a6.484 6.484 0 0 1-6.476 6.476 6.484 6.484 0 0 1-6.476-6.477 6.483 6.483 0 0 1 6.476-6.476 6.483 6.483 0 0 1 6.476 6.477zm-1.289-.001a5.192 5.192 0 0 0-5.187-5.187 5.193 5.193 0 0 0-5.187 5.188 5.193 5.193 0 0 0 5.187 5.187 5.193 5.193 0 0 0 5.187-5.188zM38.959 48.26a.646.646 0 0 1-1.1.456.643.643 0 1 1 1.1-.456z"/></g></g></svg>